<svg xmlns="http://www.w3.org/2000/svg" viewBox="0 0 570 1000"><title>Second Order lowercase delta</title><path d="M86.66 154.802H485.596V223.738H206.689Q256.494 271.899 362.578 341.308Q457.207 403.634 494.561 456.989Q531.914 510.344 531.914 601.473Q531.914 723.764 462.437 791.048Q392.959 858.332 281.396 858.332Q159.375 858.332 97.617 782.785Q35.859 707.238 35.859 603.361Q35.859 482.486 101.104 418.98Q166.348 355.473 256.992 352.168Q210.674 321.477 86.66 216.184ZM127.5 604.306Q127.5 684.574 172.075 736.513Q216.65 788.451 285.879 788.451Q346.641 788.451 393.208 744.067Q439.775 699.684 439.775 603.833Q439.775 515.066 395.449 466.433Q351.123 417.799 283.887 417.799Q209.678 417.799 168.589 472.571Q127.5 527.342 127.5 604.306Z" fill="#000" stroke="#000" stroke-width="18" stroke-linejoin="round"/></svg>
